<?xml version="1.0" standalone="no"?>
<!DOCTYPE svg PUBLIC "-//W3C//DTD SVG 20010904//EN"
 "http://www.w3.org/TR/2001/REC-SVG-20010904/DTD/svg10.dtd">
<svg version="1.0" xmlns="http://www.w3.org/2000/svg"
 width="512.000000pt" height="512.000000pt" viewBox="0 0 512.000000 512.000000"
 preserveAspectRatio="xMidYMid meet">
<metadata>
Created by potrace 1.14, written by Peter Selinger 2001-2017
</metadata>
<g transform="translate(0.000000,512.000000) scale(0.100000,-0.100000)"
fill="#000000" stroke="none">
<path d="M1361 4228 c-66 -33 -73 -56 -74 -258 l-1 -178 -181 -4 c-174 -3
-182 -4 -237 -32 -88 -43 -163 -126 -198 -216 -12 -31 -18 -213 -20 -602 l0
-28 -189 0 c-144 0 -197 -3 -224 -15 -38 -16 -80 -63 -92 -104 -4 -14 -7 -174
-7 -356 0 -295 2 -336 17 -366 27 -50 70 -85 115 -92 15 -3 26 -13 31 -28 3
-13 13 -39 22 -56 11 -20 17 -56 17 -96 0 -101 27 -112 108 -41 l52 46 0 -114
c0 -154 15 -169 101 -97 l49 41 0 -74 0 -74 -175 0 c-115 0 -179 -4 -186 -11
-13 -13 -16 -143 -6 -219 10 -67 54 -135 117 -177 28 -19 64 -55 79 -80 35
-54 103 -103 162 -115 26 -6 868 -9 2014 -8 l1970 1 55 30 c62 34 114 97 131
158 15 55 16 234 1 249 -6 6 -41 11 -79 12 l-68 2 -2 68 c-1 38 -6 73 -12 79
-5 5 -53 10 -105 11 l-96 1 0 40 c-2 242 0 589 4 592 2 3 18 -8 34 -24 76 -72
226 -199 244 -206 40 -15 48 7 48 134 0 88 3 119 13 120 82 5 140 39 168 97
21 43 22 57 22 371 0 222 -4 339 -12 362 -15 45 -56 85 -106 102 -32 11 -41
21 -52 54 -30 89 -98 120 -260 118 -97 -1 -103 0 -104 19 -4 126 -77 251 -182
314 -15 9 -29 23 -32 32 -6 20 -61 79 -107 113 -56 43 -140 67 -233 67 l-82 0
0 93 c-1 118 -18 161 -77 188 -23 10 -51 19 -63 19 -19 0 -23 6 -23 32 0 38
-35 92 -70 109 -17 9 -89 13 -228 14 -191 2 -204 1 -217 -18 -19 -27 -112 -31
-121 -5 -7 22 5 20 -144 23 -115 2 -127 1 -150 -19 -33 -28 -94 -28 -114 -1
-14 20 -28 20 -612 21 -555 0 -599 -1 -633 -18z"/>
</g>
</svg>
